C:\GBW_MyPrograms\KinderuniversiteitApp\Resultaten\Ellis_v10102025\Aarde\Aarde_v2.mot
version=1
nRows=19
nColumns=29
inDegrees=yes
endheader
                time	         pelvis_tilt	           pelvis_tx	           pelvis_ty	       hip_flexion_l	       hip_flexion_r	        knee_angle_l	        knee_angle_r	       ankle_angle_l	       ankle_angle_r	    lumbar_extension	hamstrings_r/activation	bifemsh_r/activation	glut_max_r/activation	iliopsoas_r/activation	rect_fem_r/activation	  vasti_r/activation	gastroc_r/activation	 soleus_r/activation	tib_ant_r/activation	hamstrings_l/activation	bifemsh_l/activation	glut_max_l/activation	iliopsoas_l/activation	rect_fem_l/activation	  vasti_l/activation	gastroc_l/activation	 soleus_l/activation	tib_ant_l/activation	
          1.00289858	         -2.88663088	          1.31599643	          0.89243855	         -7.04663844	         31.64425620	        -31.26501967	        -26.46631544	        -10.71921441	          6.37052730	         -3.91672717	          0.60993261	          0.59801241	          0.46703333	          0.63496677	          0.58449217	          0.38780720	          0.25513684	          0.17499091	          0.79891413	          0.49427248	          0.58033156	          0.37474547	          0.81668868	          0.71196685	          0.49030953	          0.68668761	          0.67184959	          0.18698591	
          1.01292756	         -2.95266312	          1.33443399	          0.89075351	         -7.76712435	         30.90825093	        -31.22514625	        -26.02042386	        -13.83787078	          6.72246995	         -3.24453271	          0.61490726	          0.61377053	          0.51457756	          0.57219420	          0.55882450	          0.41680505	          0.27899644	          0.16242918	          0.84264350	          0.52213027	          0.60690484	          0.36935521	          0.82777922	          0.66116774	          0.42251826	          0.64123337	          0.62696754	          0.16028154	
          1.02295655	         -3.01643189	          1.35327348	          0.88907566	         -8.35924894	         30.09456137	        -31.37759455	        -26.49886360	        -17.12372548	          6.93092582	         -2.52482558	          0.57341863	          0.60852513	          0.63343206	          0.49573168	          0.52352796	          0.52917449	          0.33158611	          0.20704611	          0.83200590	          0.56013617	          0.65974994	          0.39234145	          0.79270356	          0.60956817	          0.36451581	          0.62183415	          0.61619954	          0.40669535	
          1.03298553	         -3.09886738	          1.37213778	          0.88737395	         -8.91357872	         29.19891871	        -31.60549965	        -27.07191240	        -19.13729118	          7.21645548	         -1.78027348	          0.53960781	          0.60250918	          0.69999251	          0.43413653	          0.49947411	          0.60610603	          0.35830427	          0.24471626	          0.81980130	          0.59012250	          0.66491436	          0.39985488	          0.77428007	          0.55012937	          0.31366930	          0.58401081	          0.58998470	          0.38359340	
          1.04301452	         -3.18341997	          1.39053612	          0.88597059	         -9.44670718	         28.43996641	        -31.70799952	        -27.88127399	        -19.71423043	          8.04497089	         -1.09258668	          0.51291162	          0.59361316	          0.71943697	          0.42961231	          0.50785098	          0.65297625	          0.38449840	          0.27716754	          0.77528889	          0.58112263	          0.67331996	          0.39877436	          0.76507605	          0.56740803	          0.28176295	          0.64428548	          0.63415502	          0.61398306	
          1.05304351	         -3.25715665	          1.40819306	          0.88525263	         -9.84140588	         27.85679948	        -31.81649124	        -28.95176878	        -19.26413197	          9.05447133	         -0.51038915	          0.48947906	          0.58656603	          0.73714288	          0.45231364	          0.52456679	          0.68313444	          0.41829128	          0.32262220	          0.71514484	          0.59649971	          0.70208380	          0.40440167	          0.78370061	          0.54470562	          0.24293571	          0.59219234	          0.54542888	          0.67144653	
          1.06307249	         -3.32335031	          1.42510267	          0.88533500	        -10.00916810	         27.27997150	        -32.06712358	        -29.91866959	        -18.61851241	          9.80191558	         -0.02827652	          0.48531846	          0.58698423	          0.73336924	          0.47111606	          0.53016551	          0.68070964	          0.44806253	          0.36801114	          0.68686212	          0.59736585	          0.68507162	          0.41861099	          0.79067418	          0.53356161	          0.23507964	          0.60480955	          0.57333637	          0.66854872	
          1.07310148	         -3.38645861	          1.44135275	          0.88617053	         -9.94278641	         26.61101918	        -32.45989850	        -30.62058880	        -18.36183145	         10.33833992	          0.37196089	          0.49815770	          0.59285769	          0.71645761	          0.47139364	          0.52439420	          0.65918684	          0.47488394	          0.40828534	          0.67655251	          0.59957515	          0.69570065	          0.41543222	          0.78325372	          0.53572413	          0.23473418	          0.61437560	          0.54749344	          0.64817665	
          1.08313046	         -3.44474849	          1.45702509	          0.88764664	         -9.68948409	         25.83286749	        -32.93469850	        -31.04309006	        -17.86330739	         10.68226357	          0.69960840	          0.50673373	          0.59982070	          0.69182762	          0.47970517	          0.52451186	          0.63371338	          0.50108431	          0.44513685	          0.67362981	          0.60176593	          0.69614621	          0.41656871	          0.78363633	          0.53227526	          0.22752242	          0.58463729	          0.50045648	          0.68416223	
          1.09315945	         -3.49641610	          1.47218495	          0.88964365	         -9.28144820	         24.95878641	        -33.44175127	        -31.22069223	        -17.29249243	         10.84664629	          0.96127230	          0.51203521	          0.60510025	          0.66832768	          0.50108820	          0.53252024	          0.60604318	          0.52725535	          0.47947347	          0.67001364	          0.59783040	          0.68517043	          0.42733643	          0.78814636	          0.53540127	          0.23613080	          0.59397250	          0.52189080	          0.68455408	
          1.10318843	         -3.54314886	          1.48689987	          0.89204658	         -8.76023876	         24.01135217	        -33.86436781	        -31.19808904	        -16.97645047	         10.84537419	          1.16774883	          0.52874281	          0.61284844	          0.64516255	          0.50199675	          0.52716888	          0.57074224	          0.55110042	          0.50901417	          0.66337064	          0.59931839	          0.68539115	          0.42381669	          0.77182981	          0.53478711	          0.22865792	          0.59533329	          0.50055979	          0.68568758	
          1.11321742	         -3.58389632	          1.50119616	          0.89472837	         -8.13777974	         23.02052347	        -34.24117305	        -31.03560124	        -16.47403980	         10.69995237	          1.32084073	          0.53496932	          0.61976116	          0.61789405	          0.51751287	          0.53054948	          0.53835838	          0.57263765	          0.53401864	          0.65179940	          0.59922893	          0.68244486	          0.41709841	          0.76420004	          0.53195785	          0.22444071	          0.57972741	          0.48541364	          0.71864712	
          1.12324641	         -3.61617921	          1.51508758	          0.89758858	         -7.41262882	         22.01648965	        -34.60433346	        -30.79349406	        -16.03445328	         10.42121109	          1.41897033	          0.53870074	          0.62452667	          0.60145282	          0.54021142	          0.53984729	          0.51108544	          0.59046863	          0.55418335	          0.63637869	          0.59723861	          0.67924933	          0.41639710	          0.75654245	          0.53340228	          0.21999803	          0.58557605	          0.48103479	          0.71883312	
          1.13327539	         -3.64198618	          1.52858459	          0.90053317	         -6.58218468	         21.02882390	        -35.00465019	        -30.52321219	        -15.61870471	         10.02607646	          1.46539489	          0.54515854	          0.62855945	          0.58739544	          0.55167570	          0.54427654	          0.49193074	          0.60306480	          0.56834838	          0.62058776	          0.59848321	          0.68001120	          0.40150043	          0.74195372	          0.53026123	          0.21057782	          0.58350231	          0.46839404	          0.73879383	
          1.14330438	         -3.66045890	          1.54169374	          0.90349331	         -5.63905152	         20.07379170	        -35.50965025	        -30.25889341	        -15.14743005	          9.53655660	          1.45949819	          0.54602701	          0.62973547	          0.57495405	          0.56575036	          0.55334927	          0.48323351	          0.61104270	          0.57744811	          0.60673466	          0.59909862	          0.68142732	          0.38294908	          0.72943127	          0.52919940	          0.20014042	          0.58143865	          0.45699953	          0.75370696	
          1.15333336	         -3.67087146	          1.55442518	          0.90642530	         -4.57353723	         19.15708509	        -36.16978942	        -30.01602170	        -14.67734785	          8.97333895	          1.40136842	          0.54661286	          0.62855258	          0.56844971	          0.57935685	          0.56380284	          0.48308210	          0.61507954	          0.58226374	          0.59565714	          0.59954309	          0.68340693	          0.36276479	          0.71513881	          0.53072502	          0.18825602	          0.58268355	          0.44692549	          0.76242181	
          1.16336235	         -3.67373848	          1.56679611	          0.90930103	         -3.37882420	         18.27622778	        -37.01599492	        -29.79432047	        -14.18036759	          8.35696925	          1.29352371	          0.54791564	          0.62720592	          0.56305190	          0.58851513	          0.57076824	          0.48630123	          0.61631501	          0.58366059	          0.58689289	          0.60128607	          0.68645370	          0.33830315	          0.69830377	          0.53306231	          0.17670879	          0.58034270	          0.43315369	          0.77431855	
          1.17339133	         -3.66889697	          1.57883069	          0.91210345	         -2.05243201	         17.42115545	        -38.05433353	        -29.58199700	        -13.65040521	          7.70696686	          1.13857729	          0.54932702	          0.62643847	          0.55814703	          0.59624679	          0.57577139	          0.48820965	          0.61599619	          0.58279574	          0.57955033	          0.60286483	          0.68956186	          0.31297451	          0.68101109	          0.53883595	          0.16734146	          0.57745408	          0.41842243	          0.78193430	
          1.18342032	         -3.65614500	          1.59055713	          0.91481641	         -0.59668160	         16.58107374	        -39.26940353	        -29.36656264	        -13.10481674	          7.04051690	          0.93956512	          0.55194897	          0.62633467	          0.55374030	          0.60251766	          0.57917411	          0.48749737	          0.61471096	          0.58022446	          0.57376699	          0.60359783	          0.69261338	          0.28850069	          0.66348785	          0.54909561	          0.16018577	          0.57375528	          0.40329627	          0.78756942	
